<svg width="20" height="20" viewBox="0 0 20 20" fill="none" xmlns="http://www.w3.org/2000/svg">
<g clip-path="url(#clip0_15_118)">
<path d="M17.0083 5.34167L14.65 2.98333C14.3417 2.675 13.9167 2.5 13.475 2.5H4.16667C3.25 2.5 2.5 3.25 2.5 4.16667V15.8333C2.5 16.75 3.25 17.5 4.16667 17.5H10.3333L17.5 10.3333V6.525C17.5 6.08333 17.325 5.65833 17.0083 5.34167ZM10 15C8.61667 15 7.5 13.8833 7.5 12.5C7.5 11.1167 8.61667 10 10 10C11.3833 10 12.5 11.1167 12.5 12.5C12.5 13.8833 11.3833 15 10 15ZM12.5 7.5C12.5 7.95833 12.125 8.33333 11.6667 8.33333H5.83333C5.375 8.33333 5 7.95833 5 7.5V5.83333C5 5.375 5.375 5 5.83333 5H11.6667C12.125 5 12.5 5.375 12.5 5.83333V7.5ZM16.6583 13.5417L18.1333 15.0167L14.1 19.05C14.0167 19.125 13.9083 19.1667 13.8 19.1667H12.9167C12.6833 19.1667 12.5 18.9833 12.5 18.75V17.8667C12.5 17.7583 12.5417 17.65 12.625 17.575L16.6583 13.5417ZM19.375 13.7583L18.6667 14.4667L17.1917 12.9917L17.9 12.2833C18.0667 12.1167 18.325 12.1167 18.4917 12.2833L19.375 13.1667C19.5417 13.3333 19.5417 13.6 19.375 13.7583Z" fill="#1F53C5"/>
</g>
<defs>
<clipPath id="clip0_15_118">
<rect width="20" height="20" fill="white"/>
</clipPath>
</defs>
</svg>
